<svg id="Layer_1" xmlns="http://www.w3.org/2000/svg" viewBox="0 0 91.6 110.1"><style>.st0{fill:#fff}</style><path class="st0" d="M69.3 28.8c1.5 0 2.7-1.2 2.7-2.7V2.7C72 1.2 70.8 0 69.3 0c-1.5 0-2.7 1.2-2.7 2.7v23.4c0 1.5 1.2 2.7 2.7 2.7zM22.4 28.8c1.5 0 2.7-1.2 2.7-2.7V2.7c0-1.5-1.2-2.7-2.7-2.7-1.5 0-2.7 1.2-2.7 2.7v23.4c0 1.5 1.2 2.7 2.7 2.7z"/><path class="st0" d="M79.6 14.2h-4.8V20c1.4 1.4 2.3 3.4 2.3 5.5 0 4.4-3.6 8-8 8s-8-3.6-8-8c0-2.2.9-4.1 2.3-5.5v-5.8H28.2V20c1.4 1.4 2.3 3.4 2.3 5.5 0 4.4-3.6 8-7.9 8-4.4 0-7.9-3.6-7.9-8 0-2.2.9-4.1 2.3-5.5v-5.8h-5c-6.6 0-12 5.4-12 12v71.9c0 6.6 5.4 12 12 12h67.6c6.6 0 12-5.4 12-12V26.2c0-6.6-5.4-12-12-12zm4.6 76.2c0 6.6-5.4 12-12 12H19.4c-6.6 0-12-5.4-12-12V49.6c0-6.6 5.4-12 12-12h52.9c6.6 0 12 5.4 12 12v40.8z"/><g><path class="st0" d="M68.4 46.3h9.2v9.5h-9.2zM55 46.3h9.2v9.5H55zM41.6 46.3h9.2v9.5h-9.2zM68.4 59.5h9.2V69h-9.2zM55 59.5h9.2V69H55zM41.6 59.5h9.2V69h-9.2zM28.2 59.5h9.2V69h-9.2zM14.8 59.5H24V69h-9.2zM68.4 72.8h9.2v9.5h-9.2zM55 72.8h9.2v9.5H55zM41.6 72.8h9.2v9.5h-9.2zM28.2 72.8h9.2v9.5h-9.2zM14.8 72.8H24v9.5h-9.2zM55 86h9.2v9.5H55zM41.6 86h9.2v9.5h-9.2zM28.2 86h9.2v9.5h-9.2zM14.8 86H24v9.5h-9.2z"/></g></svg>